# xmcd CD database file
#
# Track frame offsets:
#	150
#	15509
#	35154
#	59075
#	74793
#	90564
#	113172
#	129249
#	144774
#	164414
#	186843
#	202729
#	219655
#	242276
#	264784
#	280758
#	300455
#
# Disc length: 4216 seconds
#
# Revision: 0
# Processed by: cddbd v1.5.2PL0 Copyright (c) Steve Scherf et al.
# Submitted via: CDex 1.51
#
DISCID=ea107611
DTITLE=Hank Ray - Broken Angels 'n' Saturday Satans
DYEAR=2008
DGENRE=Country
TTITLE0=Endless Plains Of Delirious Lands
TTITLE1=Damn River Risin'
TTITLE2=Sounds Of Ghosts A-Crying
TTITLE3=Bar-B-Q Of Souls
TTITLE4=Moonlight Mile
TTITLE5=Broken Angel
TTITLE6=Saturday Satan
TTITLE7=Trail Of Dark Desires
TTITLE8=Bleeding (All Over You)
TTITLE9=Blue Highway
TTITLE10=Endless Plains Of Delirious Lands
TTITLE11=Devil In Me
TTITLE12=Broken Angel
TTITLE13=Blue Highway
TTITLE14=Saturday Satan
TTITLE15=Bleeding
TTITLE16=Blue Highway
EXTD=YEAR: 2008
EXTT0=
EXTT1=
EXTT2=
EXTT3=
EXTT4=
EXTT5=
EXTT6=
EXTT7=
EXTT8=
EXTT9=
EXTT10=
EXTT11=
EXTT12=
EXTT13=
EXTT14=
EXTT15=
EXTT16=
PLAYORDER=
